<svg version="1.2" xmlns="http://www.w3.org/2000/svg" viewBox="0 0 300 300" width="300" height="300">
	<title>New Project</title>
	<style>
		.s0 { fill: #ffffff;stroke: #5094f0;stroke-miterlimit:100;stroke-width: 10 } 
		.s1 { fill: #5094f0 } 
	</style>
	<path id="outline" class="s0" d="m273.9 205.1c-0.1 10.6-5.7 20.4-14.9 25.6l-94.9 54.5c-9.2 5.3-20.5 5.3-29.7 0l-94.6-55c-9.2-5.3-14.8-15.1-14.8-25.7l0.2-109.4c0.1-10.6 5.7-20.4 14.9-25.7l94.9-54.5c9.2-5.2 20.5-5.2 29.7 0.1l94.6 54.9c9.2 5.4 14.8 15.2 14.8 25.8z"/>
	<path id="&lt;/&gt;" class="s1" aria-label="&lt;/&gt;"  d="m102.2 182.3c0-2.8-2-4-3.6-5.1l-43.1-27.1 43.1-27.2c1.6-1 3.6-2.2 3.6-5.1 0-3.4-2.9-5.2-5.3-5.2-1.3 0-1.7 0.1-3.9 1.5l-49.3 31c-1.4 1-3.3 2.1-3.3 5 0 2 1.2 3.6 2.7 4.6l49.9 31.4c2.2 1.3 2.6 1.5 3.9 1.5 2.4 0 5.3-1.8 5.3-5.3zm78.4-85.2c0-2.7-2.2-5.2-5.2-5.2-3.3 0-4.3 2.2-5.3 4.2l-49.5 103.5c-1 2.4-1.2 2.4-1.2 3.6 0 2.7 2.3 5.2 5.3 5.2 3.3 0 4.4-2.2 5.2-4.2l49.5-103.5c1.1-2.3 1.2-2.3 1.2-3.6zm79.1 53c0-2-1.2-3.6-2.7-4.7l-49.9-31.3c-2.2-1.4-2.6-1.5-4-1.5-2.4 0-5.2 1.8-5.2 5.3 0 2.8 1.9 4 3.6 5l43.1 27.2-43.1 27.1c-1.7 1.1-3.6 2.3-3.6 5.1 0 3.5 2.8 5.3 5.3 5.3 1.3 0 1.7-0.2 3.9-1.5l49.3-31c1.3-1 3.3-2.2 3.3-5z"/>
</svg>