<svg version="1.2" xmlns="http://www.w3.org/2000/svg" viewBox="0 0 300 300" width="300" height="300"><style>.a{fill:#5094f0}</style><path fill-rule="evenodd" class="a" d="m273.9 206.1c-0.1 10.6-5.7 20.4-14.9 25.6l-94.9 54.5c-9.2 5.3-20.5 5.3-29.7 0l-94.6-55c-9.2-5.3-14.8-15.1-14.8-25.7l0.2-109.4c0.1-10.6 5.7-20.4 14.9-25.7l94.9-54.5c9.2-5.2 20.5-5.2 29.7 0.1l94.6 54.9c9.2 5.4 14.8 15.2 14.8 25.8zm-186.7-50.3c0-2.7-1.6-3.5-3.7-4.4l-20-9c-1.6-0.7-2.8-0.7-2.8-0.7-3 0-5.3 2.2-5.3 5.2 0 1.7 0.6 3.6 4.2 5.3l20 8.8c0.9 0.5 1.6 0.8 2.7 0.8 3.9 0 4.9-4.8 4.9-6zm78.8 0c0-2.7-1.7-3.5-3.8-4.4l-19.9-9c-1.7-0.7-2.9-0.7-2.9-0.7-3 0-5.2 2.2-5.2 5.2 0 1.7 0.6 3.6 4.2 5.3l19.9 8.8c0.9 0.5 1.7 0.8 2.7 0.8 3.9 0 5-4.8 5-6zm78.7 0c0-2.7-1.6-3.5-3.7-4.4l-20-9c-1.6-0.7-2.8-0.7-2.8-0.7-3 0-5.3 2.2-5.3 5.2 0 1.7 0.6 3.6 4.2 5.3l20 8.8c0.9 0.5 1.6 0.8 2.7 0.8 3.9 0 4.9-4.8 4.9-6z"/></svg>